<?xml version="1.0" encoding="UTF-8" standalone="no"?>
<!-- Created with Inkscape (http://www.inkscape.org/) -->
<svg xmlns:svg="http://www.w3.org/2000/svg" xmlns="http://www.w3.org/2000/svg" version="1.0" width="380.48001" height="372.42999" id="svg5413">
  <defs id="defs5415">
    <marker refX="0" refY="0" orient="auto" style="overflow:visible" id="Arrow2Sstart">
      <path d="M 8.7185878,4.0337352 L -2.2072895,0.016013256 L 8.7185884,-4.0017078 C 6.97309,-1.6296469 6.9831476,1.6157441 8.7185878,4.0337352 z " transform="matrix(0.3,0,0,0.3,-0.69,0)" style="font-size:12px;fill-rule:evenodd;stroke-width:0.625;stroke-linejoin:round" id="path4476"/>
    </marker>
    <marker refX="0" refY="0" orient="auto" style="overflow:visible" id="Arrow2Send">
      <path d="M 8.7185878,4.0337352 L -2.2072895,0.016013256 L 8.7185884,-4.0017078 C 6.97309,-1.6296469 6.9831476,1.6157441 8.7185878,4.0337352 z " transform="matrix(-0.3,0,0,-0.3,0.69,0)" style="font-size:12px;fill-rule:evenodd;stroke-width:0.625;stroke-linejoin:round" id="path4473"/>
    </marker>
    <marker refX="0" refY="0" orient="auto" style="overflow:visible" id="Arrow2Mend">
      <path d="M 8.7185878,4.0337352 L -2.2072895,0.016013256 L 8.7185884,-4.0017078 C 6.97309,-1.6296469 6.9831476,1.6157441 8.7185878,4.0337352 z " transform="scale(-0.6,-0.6)" style="font-size:12px;fill-rule:evenodd;stroke-width:0.625;stroke-linejoin:round" id="path4479"/>
    </marker>
  </defs>
  <g transform="translate(-177.08333,-291.81758)" id="layer1">
    <g id="g5664">
      <path d="M 243.5625,494.40625 L 243.5625,619.40625 L 243.5625,620.90625 L 245.0625,620.90625 L 355.4375,620.90625 L 355.4375,617.90625 L 246.5625,617.90625 L 246.5625,494.40625 L 243.5625,494.40625 z " style="fill:#000000;fill-opacity:1;fill-rule:evenodd;stroke:none;stroke-width:3;stroke-linecap:butt;stroke-linejoin:miter;stroke-miterlimit:4;stroke-dasharray:none;stroke-opacity:1" id="path5479"/>
      <path d="M 241.43336,500.18194 L 245.04931,490.34865 L 248.66526,500.18194 C 246.5304,498.61099 243.60955,498.62004 241.43336,500.18194 z " style="font-size:12px;fill-rule:evenodd;stroke-width:0.625;stroke-linejoin:round" id="path5670"/>
      <path d="M 349.64885,615.77033 L 359.48214,619.38628 L 349.64885,623.00223 C 351.2198,620.86737 351.21075,617.94652 349.64885,615.77033 z " style="font-size:12px;fill-rule:evenodd;stroke-width:0.625;stroke-linejoin:round" id="path5672"/>
    </g>
    <g id="g5674">
      <path d="M 244.84375,617.53125 L 182.65625,657.78125 L 184.28125,660.28125 L 246.5,620.0625 L 244.84375,617.53125 z " style="fill:#000000;fill-opacity:1;fill-rule:evenodd;stroke:none;stroke-width:3;stroke-linecap:butt;stroke-linejoin:miter;stroke-miterlimit:4;stroke-opacity:1" id="path5487"/>
      <path d="M 190.30275,658.94313 L 180.08264,661.24923 L 186.37401,652.87144 C 186.21485,655.51722 187.80921,657.96456 190.30275,658.94313 z " style="font-size:12px;fill-rule:evenodd;stroke-width:0.625;stroke-linejoin:round" id="path5680"/>
    </g>
    <switch style="font-size:20.38077354px;font-style:normal;font-weight:normal;fill:#000000;fill-opacity:1;stroke:none;stroke-width:1px;stroke-linecap:butt;stroke-linejoin:miter;stroke-opacity:1;font-family:Bitstream Vera Sans"><text x="199.18636" y="491.86807" style="font-size:20.38077354px;font-style:normal;font-weight:normal;fill:#000000;fill-opacity:1;stroke:none;stroke-width:1px;stroke-linecap:butt;stroke-linejoin:miter;stroke-opacity:1;font-family:Bitstream Vera Sans" id="text5489-fa" xml:space="preserve" systemLanguage="fa"><tspan x="199.18636" y="491.86807" style="font-family:Arial" id="tspan5491-fa">زمان</tspan></text><text x="199.18636" y="491.86807" style="font-size:20.38077354px;font-style:normal;font-weight:normal;fill:#000000;fill-opacity:1;stroke:none;stroke-width:1px;stroke-linecap:butt;stroke-linejoin:miter;stroke-opacity:1;font-family:Bitstream Vera Sans" id="text5489" xml:space="preserve"><tspan x="199.18636" y="491.86807" style="font-family:Arial" id="tspan5491">time</tspan></text></switch>
    <switch style="font-size:20.38077354px;font-style:normal;font-weight:normal;fill:#000000;fill-opacity:1;stroke:none;stroke-width:1px;stroke-linecap:butt;stroke-linejoin:miter;stroke-opacity:1;font-family:Bitstream Vera Sans"><text x="260.80115" y="653.40405" style="font-size:20.38077354px;font-style:normal;font-weight:normal;fill:#000000;fill-opacity:1;stroke:none;stroke-width:1px;stroke-linecap:butt;stroke-linejoin:miter;stroke-opacity:1;font-family:Bitstream Vera Sans" id="text5493-fa" xml:space="preserve" systemLanguage="fa"><tspan x="260.80115" y="653.40405" style="font-family:Arial" id="tspan5495-fa">فضا</tspan></text><text x="260.80115" y="653.40405" style="font-size:20.38077354px;font-style:normal;font-weight:normal;fill:#000000;fill-opacity:1;stroke:none;stroke-width:1px;stroke-linecap:butt;stroke-linejoin:miter;stroke-opacity:1;font-family:Bitstream Vera Sans" id="text5493" xml:space="preserve"><tspan x="260.80115" y="653.40405" style="font-family:Arial" id="tspan5495">space</tspan></text></switch>
    <path d="M 553.00375,586.98482 C 552.75984,545.70016 469.84101,516.83204 404.80862,518.0948 C 341.39651,519.3261 297.64786,537.60628 296.27596,557.11777 C 294.90406,576.62926 334.91686,595.82811 399.32101,596.14075 C 462.12361,596.44562 552.99867,576.14781 553.06403,529.07001" style="fill:none;fill-rule:evenodd;stroke:#000080;stroke-width:3;stroke-linecap:butt;stroke-linejoin:miter;stroke-miterlimit:4;stroke-dasharray:none;stroke-opacity:1" id="path5497"/>
    <path d="M 553.00375,531.55006 C 552.75984,490.2654 469.84101,461.39728 404.80862,462.66004 C 341.39651,463.89134 297.64786,482.17152 296.27596,501.68301 C 294.90406,521.1945 334.91686,540.39335 399.32101,540.70599 C 462.12361,541.01086 552.99867,520.71305 553.06403,473.63525" style="fill:none;fill-rule:evenodd;stroke:#000080;stroke-width:3;stroke-linecap:butt;stroke-linejoin:miter;stroke-miterlimit:4;stroke-dasharray:none;stroke-opacity:1" id="path5509"/>
    <path d="M 553.00375,476.11531 C 552.75984,434.83065 469.84101,405.96253 404.80862,407.22529 C 341.39651,408.45659 297.64786,426.73677 296.27596,446.24826 C 294.90406,465.75975 334.91686,484.9586 399.32101,485.27124 C 462.12361,485.57611 552.99867,465.2783 553.06403,418.2005" style="fill:none;fill-rule:evenodd;stroke:#000080;stroke-width:3;stroke-linecap:butt;stroke-linejoin:miter;stroke-miterlimit:4;stroke-dasharray:none;stroke-opacity:1" id="path5511"/>
    <path d="M 553.00375,420.68055 C 552.75984,379.39589 469.84101,350.52777 404.80862,351.79053 C 341.39651,353.02183 297.64786,371.30201 296.27596,390.8135 C 294.90406,410.32499 334.91686,429.52384 399.32101,429.83648 C 462.12361,430.14135 552.99867,409.84354 553.06403,362.76574" style="fill:none;fill-rule:evenodd;stroke:#000080;stroke-width:3;stroke-linecap:butt;stroke-linejoin:miter;stroke-miterlimit:4;stroke-dasharray:none;stroke-opacity:1" id="path5513"/>
    <path d="M 553.00375,365.2458 C 552.75984,323.96114 469.84101,295.09302 404.80862,296.35578 C 341.39651,297.58708 297.64786,315.86726 296.27596,335.37875 C 294.90406,354.89024 334.91686,374.08909 399.32101,374.40173 C 462.12361,374.7066 552.99867,354.40879 553.06403,307.33099" style="fill:none;fill-rule:evenodd;stroke:#000080;stroke-width:3;stroke-linecap:butt;stroke-linejoin:miter;stroke-miterlimit:4;stroke-dasharray:none;stroke-opacity:1" id="path5515"/>
  </g>
</svg>
